<svg width="80" height="39" viewBox="0 0 80 39" fill="none" xmlns="http://www.w3.org/2000/svg">
<path fill-rule="evenodd" clip-rule="evenodd" d="M19.5 39C30.2695 39 39 30.2695 39 19.5C39 8.73047 30.2695 0 19.5 0C8.73047 0 0 8.73047 0 19.5C0 30.2695 8.73047 39 19.5 39ZM29.5607 11.5605C30.1465 10.9751 30.1465 10.0249 29.5607 9.43945C28.9749 8.85352 28.0251 8.85352 27.4393 9.43945L19.5 17.3789L14.0607 11.9395C13.4749 11.3535 12.5251 11.3535 11.9393 11.9395C11.3535 12.5249 11.3535 13.4751 11.9393 14.0605L19.5 21.6211L29.5607 11.5605Z" fill="white"/>
<path fill-rule="evenodd" clip-rule="evenodd" d="M41 6C41 2.68652 43.6863 0 47 0H74C77.3137 0 80 2.68652 80 6V33C80 36.3135 77.3137 39 74 39H47C43.6863 39 41 36.3135 41 33V6ZM48.5 11C48.5 10.1714 49.1716 9.5 50 9.5H69C69.8284 9.5 70.5 10.1714 70.5 11C70.5 11.8286 69.8284 12.5 69 12.5H50C49.1716 12.5 48.5 11.8286 48.5 11ZM50 18C49.1716 18 48.5 18.6714 48.5 19.5C48.5 20.3286 49.1716 21 50 21H62C62.8284 21 63.5 20.3286 63.5 19.5C63.5 18.6714 62.8284 18 62 18H50Z" fill="white"/>
</svg>
