<svg width="62" height="62" viewBox="0 0 62 62" fill="none" xmlns="http://www.w3.org/2000/svg">
<path fill-rule="evenodd" clip-rule="evenodd" d="M29.3621 0C24.9437 0 21.3621 3.58154 21.3621 8V32C21.3621 36.4185 24.9437 40 29.3621 40H32.3621C36.7804 40 40.3621 36.4185 40.3621 32V8C40.3621 3.58154 36.7804 0 32.3621 0H29.3621ZM29.8621 3C26.5483 3 23.8621 5.68652 23.8621 9V31C23.8621 34.3135 26.5483 37 29.8621 37H31.8621C35.1758 37 37.8621 34.3135 37.8621 31V9C37.8621 5.68652 35.1758 3 31.8621 3H29.8621Z" fill="white"/>
<path fill-rule="evenodd" clip-rule="evenodd" d="M29.3621 22C24.9437 22 21.3621 25.5815 21.3621 30V54C21.3621 58.4185 24.9437 62 29.3621 62H32.3621C36.7804 62 40.3621 58.4185 40.3621 54V30C40.3621 25.5815 36.7804 22 32.3621 22H29.3621ZM29.8621 25C26.5483 25 23.8621 27.6865 23.8621 31V53C23.8621 56.3135 26.5483 59 29.8621 59H31.8621C35.1758 59 37.8621 56.3135 37.8621 53V31C37.8621 27.6865 35.1758 25 31.8621 25H29.8621Z" fill="white"/>
<path fill-rule="evenodd" clip-rule="evenodd" d="M7.8811 10.1405C4.75686 13.2647 4.75678 18.3299 7.8811 21.4542L24.8517 38.4248C27.976 41.5491 33.0411 41.549 36.1654 38.4248L38.2867 36.3035C41.4109 33.1792 41.411 28.1141 38.2867 24.9898L21.3161 8.01919C18.1918 4.89487 13.1267 4.89495 10.0024 8.01919L7.8811 10.1405ZM10.356 11.9083C8.01282 14.2514 8.01299 18.0506 10.356 20.3936L25.9123 35.9499C28.2553 38.2929 32.0544 38.2931 34.3976 35.9499L35.8118 34.5357C38.155 32.1925 38.1548 28.3934 35.8118 26.0504L20.2555 10.4941C17.9125 8.15108 14.1133 8.15091 11.7702 10.4941L10.356 11.9083Z" fill="white"/>
<path fill-rule="evenodd" clip-rule="evenodd" d="M23.4375 25.6967C20.3133 28.8209 20.3132 33.886 23.4375 37.0104L40.4081 53.9809C43.5324 57.1053 48.5975 57.1052 51.7218 53.9809L53.8431 51.8596C56.9673 48.7354 56.9674 43.6702 53.8431 40.5459L36.8725 23.5753C33.7482 20.451 28.683 20.4511 25.5588 23.5753L23.4375 25.6967ZM25.9124 27.4644C23.5692 29.8076 23.5694 33.6067 25.9124 35.9497L41.4687 51.5061C43.8117 53.849 47.6108 53.8492 49.954 51.5061L51.3682 50.0918C53.7114 47.7487 53.7112 43.9495 51.3682 41.6066L35.8119 26.0502C33.4689 23.7072 29.6697 23.7071 27.3266 26.0502L25.9124 27.4644Z" fill="white"/>
<path fill-rule="evenodd" clip-rule="evenodd" d="M51.7217 8.01721C48.5974 4.89297 43.5323 4.89288 40.408 8.01721L23.4374 24.9878C20.3131 28.1121 20.3132 33.1772 23.4374 36.3015L25.5587 38.4228C28.683 41.547 33.7481 41.5471 36.8724 38.4228L53.843 21.4522C56.9673 18.3279 56.9672 13.2628 53.843 10.1385L51.7217 8.01721ZM49.9539 10.4921C47.6108 8.14892 43.8116 8.1491 41.4686 10.4921L25.9123 26.0484C23.5693 28.3914 23.5691 32.1906 25.9123 34.5337L27.3265 35.9479C29.6696 38.2911 33.4688 38.2909 35.8118 35.9479L51.3681 20.3916C53.7111 18.0486 53.7113 14.2494 51.3681 11.9063L49.9539 10.4921Z" fill="white"/>
<path fill-rule="evenodd" clip-rule="evenodd" d="M36.1653 23.5734C33.041 20.4491 27.9759 20.449 24.8516 23.5734L7.88101 40.5439C4.75669 43.6682 4.75677 48.7334 7.88101 51.8576L10.0023 53.9789C13.1266 57.1032 18.1917 57.1033 21.316 53.9789L38.2866 37.0084C41.4109 33.8841 41.4108 28.8189 38.2866 25.6947L36.1653 23.5734ZM34.3975 26.0482C32.0544 23.7051 28.2552 23.7052 25.9122 26.0482L10.3559 41.6046C8.0129 43.9476 8.01273 47.7467 10.3559 50.0899L11.7701 51.5041C14.1132 53.8472 17.9124 53.8471 20.2554 51.5041L35.8117 35.9477C38.1547 33.6047 38.1549 29.8056 35.8117 27.4624L34.3975 26.0482Z" fill="white"/>
<path fill-rule="evenodd" clip-rule="evenodd" d="M62 29.1377C62 24.7194 58.4185 21.1377 54 21.1377H30C25.5815 21.1377 22 24.7194 22 29.1377V32.1377C22 36.556 25.5815 40.1377 30 40.1377H54C58.4185 40.1377 62 36.556 62 32.1377V29.1377ZM59 29.6377C59 26.324 56.3135 23.6377 53 23.6377H31C27.6865 23.6377 25 26.324 25 29.6377V31.6377C25 34.9514 27.6865 37.6377 31 37.6377H53C56.3135 37.6377 59 34.9514 59 31.6377V29.6377Z" fill="white"/>
<path fill-rule="evenodd" clip-rule="evenodd" d="M40 29.1377C40 24.7194 36.4185 21.1377 32 21.1377H8C3.58155 21.1377 2.38419e-06 24.7194 2.38419e-06 29.1377V32.1377C2.38419e-06 36.556 3.58155 40.1377 8 40.1377H32C36.4185 40.1377 40 36.556 40 32.1377V29.1377ZM37 29.6377C37 26.324 34.3135 23.6377 31 23.6377H9C5.68653 23.6377 3 26.324 3 29.6377V31.6377C3 34.9514 5.68653 37.6377 9 37.6377H31C34.3135 37.6377 37 34.9514 37 31.6377V29.6377Z" fill="white"/>
</svg>
